<?xml version="1.0" encoding="utf-8"?>
<!-- Generator: Adobe Illustrator 23.0.3, SVG Export Plug-In . SVG Version: 6.00 Build 0)  -->
<svg version="1.1" xmlns="http://www.w3.org/2000/svg" xmlns:xlink="http://www.w3.org/1999/xlink" x="0px" y="0px"
	 viewBox="0 0 283.5 99.2" style="enable-background:new 0 0 283.5 99.2;" xml:space="preserve">
<style type="text/css">
	.st0{fill:#F58633;}
	.st1{fill:#4D5156;}
</style>
<g id="Layer_1">
	<path class="st0" d="M236.7,53.8c0.1,4.6,4.3,14.1,4.3,14.1l-8.7-12.6c0,0,0,0,0,0l-28-43c0,0-19.9,30.6,13.2,51.5
		c-15.2,10.9-19.7,23.1-19.7,23.1s70.9-35.3,75.2-22.7C276.9,55.1,269.9,47.9,236.7,53.8z M261.1,54.2c5.6-0.5,7.8,1.5,7.8,1.5
		C267.5,59.9,261.1,54.2,261.1,54.2z"/>
</g>
<g id="Layer_4">
	<path class="st1" d="M263,21.2l-7,27.6c-5.5-0.7-12,0.2-19.1,1.5C239.9,31.3,263,21.2,263,21.2z"/>
</g>
<g id="Layer_2">
	<path class="st1" d="M131.5,76.2h-10l-3-7.1h-14.3l3.5-8.2h7.3l-2.2-5.2l-4.6-10.9l-0.3-0.7L96.2,71.6l-2,4.7h-9.9l18.6-41.4h10.1
		l4.5,10l7.2,16.1l3.7,8.2L131.5,76.2z M145.1,76.2V34.8h-9.2v41.4H145.1z M183.1,69.9l-6.7-8.1c3.4-1.2,5.7-2.8,7.1-4.7
		c1.9-2.4,2.4-5.3,2.5-8.3c0-6.5-4.3-12.6-12.3-13.7c-0.9-0.1-1.9-0.2-3-0.2H151v41.4h9.2V42.7h10.4c4.3,0,6.2,3.4,6.2,6.3
		c0,2.2-1.3,4.7-4.2,5.5c-0.1,0-0.2,0.1-0.4,0.1c-0.5,0.1-1,0.2-1.6,0.2h-3.5l-3.3,7.8h2.9l0.2,0.2l10.4,13.4h10.2v-0.7L183.1,69.9z
		"/>
</g>
<g id="Layer_3">
	<path class="st0" d="M41.4,34.9v25.9h4.7v8h-4.7v7.5h-9.1v-7.5H10.3l-0.8-9.5l22.7-24.4H41.4z M32.3,60.8V46.1L19,60.8H32.3z
		 M81.7,43.2H59.9v6.4h7.3c8.9,0,16.9,2.8,16.8,13.5c0,10.2-9,13.7-16.6,13.7c-9.6,0-16.9-3.5-16.9-13.3h9.1c0,3.7,4.3,5.1,7.7,5.1
		c2.2,0,7.6-0.8,7.6-5.6c0.1-4.6-4.9-5.6-7.7-5.6H51.3c0-7.8,0-14.8,0-22.6h30.4V43.2z"/>
</g>
</svg>
